<svg width="800" height="800" viewBox="0 0 800 800" xmlns="http://www.w3.org/2000/svg">
  <defs>
    <linearGradient id="jarGrad" x1="0%" y1="0%" x2="0%" y2="100%">
      <stop offset="0%" stop-color="#F0C877" />
      <stop offset="100%" stop-color="#D9A441" />
    </linearGradient>
    <linearGradient id="bgGrad" x1="0%" y1="0%" x2="100%" y2="100%">
      <stop offset="0%" stop-color="#F7F1DE" />
      <stop offset="100%" stop-color="#ECE0C5" />
    </linearGradient>
  </defs>
  <rect width="800" height="800" fill="url(#bgGrad)" />
  <!-- honeycomb texture -->
  <g opacity="0.12" stroke="#592A0D" stroke-width="1.5" fill="none">
    <path d="M400 60 L456 92 L456 156 L400 188 L344 156 L344 92 Z" />
    <path d="M400 188 L456 220 L456 284 L400 316 L344 284 L344 220 Z" />
    <path d="M456 92 L512 60 L568 92 L568 156 L512 188 L456 156 Z" />
    <path d="M344 92 L288 60 L232 92 L232 156 L288 188 L344 156 Z" />
    <path d="M456 156 L512 188 L568 156 L568 220 L512 252 L456 220 Z" />
    <path d="M344 156 L288 188 L232 156 L232 220 L288 252 L344 220 Z" />
  </g>
  <!-- jar body -->
  <rect x="300" y="360" width="200" height="260" rx="18" fill="url(#jarGrad)" stroke="#592A0D" stroke-width="4" />
  <rect x="320" y="300" width="160" height="70" rx="10" fill="#592A0D" />
  <rect x="335" y="270" width="130" height="40" rx="8" fill="#3F4A34" />
  <!-- drip -->
  <path d="M400 620 C 385 660, 385 690, 400 710 C 415 690, 415 660, 400 620 Z" fill="#D9A441" stroke="#592A0D" stroke-width="3" />
  <!-- label -->
  <rect x="325" y="440" width="150" height="90" rx="6" fill="#ECE0C5" stroke="#592A0D" stroke-width="2.5" />
  <text x="400" y="478" font-family="Georgia, serif" font-size="22" fill="#592A0D" text-anchor="middle" font-weight="600">ELVARA</text>
  <text x="400" y="500" font-family="Georgia, serif" font-size="10" letter-spacing="2" fill="#592A0D" text-anchor="middle">HONEY</text>
  <!-- bee -->
  <g transform="translate(560,340) rotate(15)">
    <ellipse cx="0" cy="0" rx="22" ry="15" fill="#D9A441" stroke="#592A0D" stroke-width="2.5" />
    <path d="M-22 0 A22 15 0 0 0 -22 0" fill="none" />
    <line x1="-10" y1="-14" x2="-10" y2="14" stroke="#592A0D" stroke-width="3" />
    <line x1="2" y1="-15" x2="2" y2="15" stroke="#592A0D" stroke-width="3" />
    <ellipse cx="-26" cy="0" rx="8" ry="7" fill="#592A0D" />
    <path d="M-5 -10 C -20 -30, -45 -30, -50 -10 C -35 -8, -18 -5, -5 -10 Z" fill="#ECE0C5" fill-opacity="0.8" stroke="#592A0D" stroke-width="1.5" />
    <path d="M-5 10 C -20 30, -45 30, -50 10 C -35 8, -18 5, -5 10 Z" fill="#ECE0C5" fill-opacity="0.8" stroke="#592A0D" stroke-width="1.5" />
  </g>
  <text x="400" y="760" font-family="Georgia, serif" font-style="italic" font-size="16" fill="#592A0D" fill-opacity="0.55" text-anchor="middle">placeholder — ganti dengan foto produk asli</text>
</svg>
